<svg xmlns="http://www.w3.org/2000/svg" viewBox="0 0 512 512" role="img" aria-label="Muhammet Acar logo">
  <rect width="512" height="512" fill="#000"/>

  <!-- Monogram -->
  <path
    fill="#fff"
    d="M120 390V140L250 228L392 140V390H323V262L256 309L189 262V390Z"
  />

  <!-- Stylized profile cut -->
  <path
    fill="#000"
    d="M286 174
       C314 170 344 180 362 203
       C379 223 382 254 369 278
       C362 291 352 301 338 308
       C338 320 336 333 333 344
       C329 359 312 372 295 372
       H264
       C257 372 252 367 252 360
       C252 352 255 343 258 334
       C262 322 264 310 263 299
       C245 282 238 257 242 233
       C247 206 264 185 286 174Z"
  />

  <!-- Hair detail -->
  <path
    fill="#000"
    d="M275 184
       C287 173 310 168 326 173
       C342 178 355 190 362 204
       C347 196 333 191 316 190
       C302 190 287 194 275 184Z"
  />
</svg>
