<svg xmlns="http://www.w3.org/2000/svg" width="960" height="720" viewBox="0 0 960 720">
  <rect width="960" height="720" fill="#0b1220"/>
  <rect x="32" y="32" width="896" height="656" rx="32" fill="#f8fafc"/>
  <rect x="32" y="32" width="896" height="80" rx="32" fill="#e2e8f0"/>
  <rect x="70" y="60" width="180" height="12" rx="6" fill="#94a3b8"/>
  <rect x="70" y="140" width="820" height="500" rx="24" fill="#ffffff" stroke="#e2e8f0"/>
  <path d="M140 230 C 260 200, 340 260, 420 240 C 520 215, 600 280, 700 260 C 760 250, 820 300, 860 280" stroke="#0ea5e9" stroke-width="4" fill="none"/>
  <path d="M160 320 C 260 300, 340 340, 440 330 C 560 320, 640 360, 760 350" stroke="#22c55e" stroke-width="3" fill="none" opacity="0.7"/>
  <circle cx="220" cy="240" r="10" fill="#0ea5e9"/>
  <circle cx="480" cy="230" r="10" fill="#22c55e"/>
  <circle cx="720" cy="260" r="10" fill="#0ea5e9"/>
  <rect x="120" y="420" width="200" height="110" rx="16" fill="#f1f5f9"/>
  <rect x="350" y="420" width="200" height="110" rx="16" fill="#f1f5f9"/>
  <rect x="580" y="420" width="200" height="110" rx="16" fill="#f1f5f9"/>
  <rect x="140" y="455" width="120" height="10" rx="5" fill="#94a3b8"/>
  <rect x="370" y="455" width="120" height="10" rx="5" fill="#94a3b8"/>
  <rect x="600" y="455" width="120" height="10" rx="5" fill="#94a3b8"/>
</svg>
