<svg xmlns="http://www.w3.org/2000/svg" width="960" height="720" viewBox="0 0 960 720">
  <rect width="960" height="720" fill="#0b1220"/>
  <rect x="32" y="32" width="896" height="656" rx="32" fill="#f8fafc"/>
  <rect x="32" y="32" width="896" height="70" rx="32" fill="#e2e8f0"/>
  <circle cx="70" cy="67" r="6" fill="#94a3b8"/>
  <circle cx="90" cy="67" r="6" fill="#94a3b8"/>
  <circle cx="110" cy="67" r="6" fill="#94a3b8"/>
  <rect x="56" y="120" width="200" height="540" rx="18" fill="#e2e8f0"/>
  <rect x="80" y="150" width="140" height="12" rx="6" fill="#94a3b8"/>
  <rect x="80" y="178" width="120" height="10" rx="5" fill="#cbd5f5"/>
  <rect x="80" y="230" width="140" height="12" rx="6" fill="#94a3b8"/>
  <rect x="80" y="258" width="110" height="10" rx="5" fill="#cbd5f5"/>
  <rect x="80" y="310" width="130" height="12" rx="6" fill="#94a3b8"/>
  <rect x="80" y="338" width="100" height="10" rx="5" fill="#cbd5f5"/>
  <rect x="280" y="120" width="620" height="160" rx="20" fill="#ffffff" stroke="#e2e8f0"/>
  <rect x="300" y="150" width="130" height="60" rx="14" fill="#e0f2fe"/>
  <rect x="450" y="150" width="130" height="60" rx="14" fill="#dcfce7"/>
  <rect x="600" y="150" width="130" height="60" rx="14" fill="#fef9c3"/>
  <rect x="300" y="300" width="600" height="260" rx="20" fill="#ffffff" stroke="#e2e8f0"/>
  <path d="M320 500 L 420 440 L 500 460 L 600 400 L 700 430 L 860 380" stroke="#0ea5e9" stroke-width="4" fill="none"/>
  <path d="M320 520 L 420 480 L 500 500 L 600 460 L 700 470 L 860 440" stroke="#22c55e" stroke-width="3" fill="none" opacity="0.7"/>
  <rect x="300" y="580" width="600" height="70" rx="18" fill="#f1f5f9"/>
  <rect x="320" y="606" width="180" height="10" rx="5" fill="#94a3b8"/>
  <rect x="520" y="606" width="220" height="10" rx="5" fill="#cbd5f5"/>
</svg>
