<svg xmlns="http://www.w3.org/2000/svg" width="960" height="720" viewBox="0 0 960 720">
  <rect width="960" height="720" fill="#0b1220"/>
  <rect x="32" y="32" width="896" height="656" rx="32" fill="#f8fafc"/>
  <rect x="32" y="32" width="896" height="80" rx="32" fill="#e2e8f0"/>
  <rect x="70" y="60" width="220" height="12" rx="6" fill="#94a3b8"/>
  <rect x="70" y="140" width="820" height="110" rx="22" fill="#ffffff" stroke="#e2e8f0"/>
  <rect x="90" y="170" width="140" height="12" rx="6" fill="#94a3b8"/>
  <rect x="90" y="195" width="200" height="10" rx="5" fill="#cbd5f5"/>
  <rect x="70" y="280" width="520" height="340" rx="20" fill="#ffffff" stroke="#e2e8f0"/>
  <rect x="610" y="280" width="280" height="340" rx="20" fill="#ffffff" stroke="#e2e8f0"/>
  <rect x="100" y="320" width="140" height="16" rx="8" fill="#e0f2fe"/>
  <rect x="260" y="320" width="140" height="16" rx="8" fill="#dcfce7"/>
  <rect x="420" y="320" width="140" height="16" rx="8" fill="#fef9c3"/>
  <rect x="100" y="380" width="420" height="12" rx="6" fill="#94a3b8"/>
  <rect x="100" y="408" width="360" height="10" rx="5" fill="#cbd5f5"/>
  <rect x="100" y="450" width="420" height="12" rx="6" fill="#94a3b8"/>
  <rect x="100" y="478" width="320" height="10" rx="5" fill="#cbd5f5"/>
  <rect x="640" y="320" width="220" height="18" rx="9" fill="#e0f2fe"/>
  <rect x="640" y="360" width="180" height="12" rx="6" fill="#94a3b8"/>
  <rect x="640" y="390" width="160" height="10" rx="5" fill="#cbd5f5"/>
  <rect x="640" y="430" width="200" height="12" rx="6" fill="#94a3b8"/>
  <rect x="640" y="458" width="150" height="10" rx="5" fill="#cbd5f5"/>
  <rect x="640" y="500" width="190" height="12" rx="6" fill="#94a3b8"/>
  <rect x="640" y="528" width="170" height="10" rx="5" fill="#cbd5f5"/>
</svg>
