<svg xmlns="http://www.w3.org/2000/svg" width="960" height="720" viewBox="0 0 960 720">
  <rect width="960" height="720" fill="#0b1220"/>
  <rect x="32" y="32" width="896" height="656" rx="32" fill="#f8fafc"/>
  <rect x="32" y="32" width="896" height="80" rx="32" fill="#e2e8f0"/>
  <rect x="70" y="60" width="220" height="12" rx="6" fill="#94a3b8"/>
  <rect x="70" y="140" width="500" height="500" rx="24" fill="#ffffff" stroke="#e2e8f0"/>
  <rect x="600" y="140" width="290" height="500" rx="24" fill="#ffffff" stroke="#e2e8f0"/>
  <rect x="100" y="190" width="200" height="14" rx="7" fill="#94a3b8"/>
  <rect x="100" y="220" width="420" height="12" rx="6" fill="#cbd5f5"/>
  <rect x="100" y="270" width="420" height="50" rx="12" fill="#e0f2fe"/>
  <rect x="100" y="340" width="420" height="50" rx="12" fill="#dcfce7"/>
  <rect x="100" y="410" width="420" height="50" rx="12" fill="#fee2e2"/>
  <rect x="100" y="480" width="420" height="50" rx="12" fill="#fef9c3"/>
  <rect x="630" y="190" width="230" height="120" rx="18" fill="#f1f5f9"/>
  <rect x="630" y="330" width="230" height="120" rx="18" fill="#f1f5f9"/>
  <rect x="630" y="470" width="230" height="120" rx="18" fill="#f1f5f9"/>
  <rect x="650" y="230" width="120" height="12" rx="6" fill="#94a3b8"/>
  <rect x="650" y="370" width="120" height="12" rx="6" fill="#94a3b8"/>
  <rect x="650" y="510" width="120" height="12" rx="6" fill="#94a3b8"/>
</svg>
